<mxfile host="app.diagrams.net" modified="2024-07-08T14:38:55.193Z" agent="Mozilla/5.0 (Windows NT 10.0; Win64; x64; rv:127.0) Gecko/20100101 Firefox/127.0" etag="QRPMXK4sXjO68tslii3Z" version="24.6.4" type="device">
  <diagram name="Seite-1" id="zkAX0Kposz-xjx69ceX1">
    <mxGraphModel dx="3771" dy="2076" grid="1" gridSize="10" guides="1" tooltips="1" connect="1" arrows="1" fold="1" page="1" pageScale="1" pageWidth="827" pageHeight="1169" math="0" shadow="0">
      <root>
        <mxCell id="0" />
        <mxCell id="1" parent="0" />
        <mxCell id="pbYkRBpgoTOlhweivNC_-1" value="sd Essen bestellen" style="shape=umlFrame;whiteSpace=wrap;html=1;pointerEvents=0;recursiveResize=0;container=1;collapsible=0;width=160;" parent="1" vertex="1">
          <mxGeometry x="40" y="30" width="840" height="2020" as="geometry" />
        </mxCell>
        <mxCell id="pbYkRBpgoTOlhweivNC_-49" style="edgeStyle=orthogonalEdgeStyle;rounded=0;orthogonalLoop=1;jettySize=auto;html=1;" parent="pbYkRBpgoTOlhweivNC_-1" source="pbYkRBpgoTOlhweivNC_-2" edge="1">
          <mxGeometry relative="1" as="geometry">
            <mxPoint x="380" y="100" as="targetPoint" />
          </mxGeometry>
        </mxCell>
        <mxCell id="pbYkRBpgoTOlhweivNC_-2" value="" style="ellipse;fillColor=strokeColor;html=1;" parent="pbYkRBpgoTOlhweivNC_-1" vertex="1">
          <mxGeometry x="365" y="20" width="30" height="30" as="geometry" />
        </mxCell>
        <mxCell id="pbYkRBpgoTOlhweivNC_-50" style="edgeStyle=orthogonalEdgeStyle;rounded=0;orthogonalLoop=1;jettySize=auto;html=1;exitX=0.517;exitY=0.999;exitDx=0;exitDy=0;exitPerimeter=0;" parent="pbYkRBpgoTOlhweivNC_-1" source="pbYkRBpgoTOlhweivNC_-64" target="pbYkRBpgoTOlhweivNC_-7" edge="1">
          <mxGeometry relative="1" as="geometry">
            <mxPoint x="380" y="180" as="sourcePoint" />
            <Array as="points" />
          </mxGeometry>
        </mxCell>
        <mxCell id="pbYkRBpgoTOlhweivNC_-51" style="edgeStyle=orthogonalEdgeStyle;rounded=0;orthogonalLoop=1;jettySize=auto;html=1;entryX=0.5;entryY=0;entryDx=0;entryDy=0;" parent="pbYkRBpgoTOlhweivNC_-1" source="pbYkRBpgoTOlhweivNC_-7" target="pbYkRBpgoTOlhweivNC_-24" edge="1">
          <mxGeometry relative="1" as="geometry" />
        </mxCell>
        <mxCell id="pbYkRBpgoTOlhweivNC_-7" value="ref" style="shape=umlFrame;whiteSpace=wrap;html=1;pointerEvents=0;recursiveResize=0;container=1;collapsible=0;width=60;height=30;" parent="pbYkRBpgoTOlhweivNC_-1" vertex="1">
          <mxGeometry x="280" y="492" width="200" height="80" as="geometry" />
        </mxCell>
        <mxCell id="pbYkRBpgoTOlhweivNC_-8" value="ein Restaurant auswählen" style="text;html=1;" parent="pbYkRBpgoTOlhweivNC_-7" vertex="1">
          <mxGeometry width="100" height="20" relative="1" as="geometry">
            <mxPoint x="20" y="40" as="offset" />
          </mxGeometry>
        </mxCell>
        <mxCell id="pbYkRBpgoTOlhweivNC_-63" style="edgeStyle=orthogonalEdgeStyle;rounded=0;orthogonalLoop=1;jettySize=auto;html=1;" parent="pbYkRBpgoTOlhweivNC_-1" source="pbYkRBpgoTOlhweivNC_-9" target="pbYkRBpgoTOlhweivNC_-11" edge="1">
          <mxGeometry relative="1" as="geometry" />
        </mxCell>
        <mxCell id="pbYkRBpgoTOlhweivNC_-9" value="ref" style="shape=umlFrame;whiteSpace=wrap;html=1;pointerEvents=0;recursiveResize=0;container=1;collapsible=0;width=60;height=30;" parent="pbYkRBpgoTOlhweivNC_-1" vertex="1">
          <mxGeometry x="80" y="772" width="200" height="80" as="geometry" />
        </mxCell>
        <mxCell id="pbYkRBpgoTOlhweivNC_-10" value="ein anderes Restaurant wählen" style="text;html=1;" parent="pbYkRBpgoTOlhweivNC_-9" vertex="1">
          <mxGeometry width="100" height="20" relative="1" as="geometry">
            <mxPoint x="20" y="40" as="offset" />
          </mxGeometry>
        </mxCell>
        <mxCell id="pbYkRBpgoTOlhweivNC_-55" style="edgeStyle=orthogonalEdgeStyle;rounded=0;orthogonalLoop=1;jettySize=auto;html=1;entryX=0.5;entryY=0;entryDx=0;entryDy=0;" parent="pbYkRBpgoTOlhweivNC_-1" source="pbYkRBpgoTOlhweivNC_-11" target="pbYkRBpgoTOlhweivNC_-47" edge="1">
          <mxGeometry relative="1" as="geometry" />
        </mxCell>
        <mxCell id="pbYkRBpgoTOlhweivNC_-11" value="ref" style="shape=umlFrame;whiteSpace=wrap;html=1;pointerEvents=0;recursiveResize=0;container=1;collapsible=0;width=60;height=30;" parent="pbYkRBpgoTOlhweivNC_-1" vertex="1">
          <mxGeometry x="480" y="772" width="200" height="80" as="geometry" />
        </mxCell>
        <mxCell id="pbYkRBpgoTOlhweivNC_-12" value="Produkte wählen" style="text;html=1;" parent="pbYkRBpgoTOlhweivNC_-11" vertex="1">
          <mxGeometry width="100" height="20" relative="1" as="geometry">
            <mxPoint x="20" y="40" as="offset" />
          </mxGeometry>
        </mxCell>
        <mxCell id="pbYkRBpgoTOlhweivNC_-13" value="ref" style="shape=umlFrame;whiteSpace=wrap;html=1;pointerEvents=0;recursiveResize=0;container=1;collapsible=0;width=60;height=30;" parent="pbYkRBpgoTOlhweivNC_-1" vertex="1">
          <mxGeometry x="80" y="914.5" width="200" height="80" as="geometry" />
        </mxCell>
        <mxCell id="pbYkRBpgoTOlhweivNC_-14" value="Bestellung ändern" style="text;html=1;" parent="pbYkRBpgoTOlhweivNC_-13" vertex="1">
          <mxGeometry width="100" height="20" relative="1" as="geometry">
            <mxPoint x="20" y="40" as="offset" />
          </mxGeometry>
        </mxCell>
        <mxCell id="pbYkRBpgoTOlhweivNC_-19" value="ref" style="shape=umlFrame;whiteSpace=wrap;html=1;pointerEvents=0;recursiveResize=0;container=1;collapsible=0;width=60;height=30;" parent="pbYkRBpgoTOlhweivNC_-1" vertex="1">
          <mxGeometry x="480" y="1610" width="200" height="80" as="geometry" />
        </mxCell>
        <mxCell id="pbYkRBpgoTOlhweivNC_-20" value="Bezahlen" style="text;html=1;" parent="pbYkRBpgoTOlhweivNC_-19" vertex="1">
          <mxGeometry width="100" height="20" relative="1" as="geometry">
            <mxPoint x="20" y="40" as="offset" />
          </mxGeometry>
        </mxCell>
        <mxCell id="pbYkRBpgoTOlhweivNC_-62" style="edgeStyle=orthogonalEdgeStyle;rounded=0;orthogonalLoop=1;jettySize=auto;html=1;entryX=0.5;entryY=0;entryDx=0;entryDy=0;" parent="pbYkRBpgoTOlhweivNC_-1" source="pbYkRBpgoTOlhweivNC_-21" target="pbYkRBpgoTOlhweivNC_-23" edge="1">
          <mxGeometry relative="1" as="geometry" />
        </mxCell>
        <mxCell id="pbYkRBpgoTOlhweivNC_-21" value="ref" style="shape=umlFrame;whiteSpace=wrap;html=1;pointerEvents=0;recursiveResize=0;container=1;collapsible=0;width=60;height=30;" parent="pbYkRBpgoTOlhweivNC_-1" vertex="1">
          <mxGeometry x="480" y="1730" width="200" height="80" as="geometry" />
        </mxCell>
        <mxCell id="pbYkRBpgoTOlhweivNC_-22" value="Bestellung abschicken" style="text;html=1;" parent="pbYkRBpgoTOlhweivNC_-21" vertex="1">
          <mxGeometry width="100" height="20" relative="1" as="geometry">
            <mxPoint x="20" y="40" as="offset" />
          </mxGeometry>
        </mxCell>
        <mxCell id="pbYkRBpgoTOlhweivNC_-23" value="" style="ellipse;html=1;shape=endState;fillColor=strokeColor;" parent="pbYkRBpgoTOlhweivNC_-1" vertex="1">
          <mxGeometry x="565" y="1850" width="30" height="30" as="geometry" />
        </mxCell>
        <mxCell id="pbYkRBpgoTOlhweivNC_-53" style="edgeStyle=orthogonalEdgeStyle;rounded=0;orthogonalLoop=1;jettySize=auto;html=1;exitX=1;exitY=0.5;exitDx=0;exitDy=0;" parent="pbYkRBpgoTOlhweivNC_-1" source="pbYkRBpgoTOlhweivNC_-24" edge="1">
          <mxGeometry relative="1" as="geometry">
            <mxPoint x="580" y="772" as="targetPoint" />
            <Array as="points">
              <mxPoint x="580" y="675" />
            </Array>
          </mxGeometry>
        </mxCell>
        <mxCell id="pbYkRBpgoTOlhweivNC_-54" style="edgeStyle=orthogonalEdgeStyle;rounded=0;orthogonalLoop=1;jettySize=auto;html=1;" parent="pbYkRBpgoTOlhweivNC_-1" source="pbYkRBpgoTOlhweivNC_-24" target="pbYkRBpgoTOlhweivNC_-9" edge="1">
          <mxGeometry relative="1" as="geometry" />
        </mxCell>
        <mxCell id="pbYkRBpgoTOlhweivNC_-24" value="Ist das Restaurant &#xa;geöffnet" style="rhombus;" parent="pbYkRBpgoTOlhweivNC_-1" vertex="1">
          <mxGeometry x="317.5" y="612" width="125" height="125" as="geometry" />
        </mxCell>
        <mxCell id="pbYkRBpgoTOlhweivNC_-56" style="edgeStyle=orthogonalEdgeStyle;rounded=0;orthogonalLoop=1;jettySize=auto;html=1;" parent="pbYkRBpgoTOlhweivNC_-1" source="pbYkRBpgoTOlhweivNC_-47" target="pbYkRBpgoTOlhweivNC_-13" edge="1">
          <mxGeometry relative="1" as="geometry" />
        </mxCell>
        <mxCell id="pbYkRBpgoTOlhweivNC_-57" style="edgeStyle=orthogonalEdgeStyle;rounded=0;orthogonalLoop=1;jettySize=auto;html=1;entryX=0.491;entryY=0.004;entryDx=0;entryDy=0;entryPerimeter=0;" parent="pbYkRBpgoTOlhweivNC_-1" source="pbYkRBpgoTOlhweivNC_-47" target="pbYkRBpgoTOlhweivNC_-106" edge="1">
          <mxGeometry relative="1" as="geometry">
            <mxPoint x="580" y="1052" as="targetPoint" />
          </mxGeometry>
        </mxCell>
        <mxCell id="pbYkRBpgoTOlhweivNC_-47" value="&#xa;Zufrieden mit der &#xa;Bestellung&#xa;" style="rhombus;" parent="pbYkRBpgoTOlhweivNC_-1" vertex="1">
          <mxGeometry x="517.5" y="892" width="125" height="125" as="geometry" />
        </mxCell>
        <mxCell id="pbYkRBpgoTOlhweivNC_-58" style="edgeStyle=orthogonalEdgeStyle;rounded=0;orthogonalLoop=1;jettySize=auto;html=1;entryX=0.001;entryY=0.513;entryDx=0;entryDy=0;entryPerimeter=0;" parent="pbYkRBpgoTOlhweivNC_-1" source="pbYkRBpgoTOlhweivNC_-13" target="pbYkRBpgoTOlhweivNC_-106" edge="1">
          <mxGeometry relative="1" as="geometry">
            <mxPoint x="479.60000000000036" y="1092.4" as="targetPoint" />
            <Array as="points">
              <mxPoint x="180" y="1163" />
            </Array>
          </mxGeometry>
        </mxCell>
        <mxCell id="pbYkRBpgoTOlhweivNC_-59" style="edgeStyle=orthogonalEdgeStyle;rounded=0;orthogonalLoop=1;jettySize=auto;html=1;exitX=0.492;exitY=1;exitDx=0;exitDy=0;exitPerimeter=0;" parent="pbYkRBpgoTOlhweivNC_-1" source="pbYkRBpgoTOlhweivNC_-106" edge="1">
          <mxGeometry relative="1" as="geometry">
            <mxPoint x="580" y="1260" as="sourcePoint" />
            <mxPoint x="580" y="1320" as="targetPoint" />
          </mxGeometry>
        </mxCell>
        <mxCell id="pbYkRBpgoTOlhweivNC_-60" style="edgeStyle=orthogonalEdgeStyle;rounded=0;orthogonalLoop=1;jettySize=auto;html=1;entryX=0.5;entryY=-0.008;entryDx=0;entryDy=0;entryPerimeter=0;" parent="pbYkRBpgoTOlhweivNC_-1" target="pbYkRBpgoTOlhweivNC_-19" edge="1">
          <mxGeometry relative="1" as="geometry">
            <mxPoint x="580" y="1570" as="sourcePoint" />
          </mxGeometry>
        </mxCell>
        <mxCell id="pbYkRBpgoTOlhweivNC_-61" style="edgeStyle=orthogonalEdgeStyle;rounded=0;orthogonalLoop=1;jettySize=auto;html=1;entryX=0.498;entryY=-0.044;entryDx=0;entryDy=0;entryPerimeter=0;" parent="pbYkRBpgoTOlhweivNC_-1" source="pbYkRBpgoTOlhweivNC_-19" target="pbYkRBpgoTOlhweivNC_-21" edge="1">
          <mxGeometry relative="1" as="geometry" />
        </mxCell>
        <mxCell id="pbYkRBpgoTOlhweivNC_-64" value="sd eine Bestellapp auswählen" style="shape=umlFrame;whiteSpace=wrap;html=1;pointerEvents=0;recursiveResize=0;container=1;collapsible=0;width=190;height=30;" parent="pbYkRBpgoTOlhweivNC_-1" vertex="1">
          <mxGeometry x="194" y="90" width="360" height="360" as="geometry" />
        </mxCell>
        <mxCell id="pbYkRBpgoTOlhweivNC_-67" value="Nutzer" style="shape=umlActor;verticalLabelPosition=bottom;verticalAlign=top;html=1;" parent="pbYkRBpgoTOlhweivNC_-64" vertex="1">
          <mxGeometry x="40" y="40" width="15" height="30" as="geometry" />
        </mxCell>
        <mxCell id="pbYkRBpgoTOlhweivNC_-68" value="&lt;div&gt;Appstore&amp;nbsp;&lt;/div&gt;&lt;div&gt;interface&lt;/div&gt;" style="shape=umlActor;verticalLabelPosition=bottom;verticalAlign=top;html=1;" parent="pbYkRBpgoTOlhweivNC_-64" vertex="1">
          <mxGeometry x="172.5" y="40" width="15" height="30" as="geometry" />
        </mxCell>
        <mxCell id="pbYkRBpgoTOlhweivNC_-69" value="Suchsystem" style="shape=umlActor;verticalLabelPosition=bottom;verticalAlign=top;html=1;" parent="pbYkRBpgoTOlhweivNC_-64" vertex="1">
          <mxGeometry x="310" y="40" width="15" height="30" as="geometry" />
        </mxCell>
        <mxCell id="pbYkRBpgoTOlhweivNC_-77" value="" style="html=1;points=[];perimeter=orthogonalPerimeter;fillColor=strokeColor;align=left;verticalAlign=top;spacingLeft=10;" parent="pbYkRBpgoTOlhweivNC_-64" vertex="1">
          <mxGeometry x="45" y="140" width="5" height="20" as="geometry" />
        </mxCell>
        <mxCell id="pbYkRBpgoTOlhweivNC_-78" value="" style="endArrow=none;startArrow=none;endFill=0;startFill=0;endSize=8;html=1;verticalAlign=bottom;dashed=1;labelBackgroundColor=none;dashPattern=10 10;rounded=0;entryX=0.555;entryY=0.674;entryDx=0;entryDy=0;entryPerimeter=0;" parent="pbYkRBpgoTOlhweivNC_-64" target="pbYkRBpgoTOlhweivNC_-77" edge="1">
          <mxGeometry width="160" relative="1" as="geometry">
            <mxPoint x="48" y="90" as="sourcePoint" />
            <mxPoint x="170" y="170" as="targetPoint" />
          </mxGeometry>
        </mxCell>
        <mxCell id="pbYkRBpgoTOlhweivNC_-79" value="" style="html=1;points=[];perimeter=orthogonalPerimeter;fillColor=strokeColor;align=left;verticalAlign=top;spacingLeft=10;" parent="pbYkRBpgoTOlhweivNC_-64" vertex="1">
          <mxGeometry x="177.5" y="140" width="5" height="80" as="geometry" />
        </mxCell>
        <mxCell id="pbYkRBpgoTOlhweivNC_-80" value="" style="endArrow=none;startArrow=none;endFill=0;startFill=0;endSize=8;html=1;verticalAlign=bottom;dashed=1;labelBackgroundColor=none;dashPattern=10 10;rounded=0;entryX=0.555;entryY=0.674;entryDx=0;entryDy=0;entryPerimeter=0;" parent="pbYkRBpgoTOlhweivNC_-64" target="pbYkRBpgoTOlhweivNC_-79" edge="1">
          <mxGeometry width="160" relative="1" as="geometry">
            <mxPoint x="180.5" y="110" as="sourcePoint" />
            <mxPoint x="302.5" y="190" as="targetPoint" />
            <Array as="points">
              <mxPoint x="180" y="160" />
            </Array>
          </mxGeometry>
        </mxCell>
        <mxCell id="pbYkRBpgoTOlhweivNC_-81" value="" style="html=1;points=[];perimeter=orthogonalPerimeter;fillColor=strokeColor;align=left;verticalAlign=top;spacingLeft=10;" parent="pbYkRBpgoTOlhweivNC_-64" vertex="1">
          <mxGeometry x="315" y="160" width="5" height="40" as="geometry" />
        </mxCell>
        <mxCell id="pbYkRBpgoTOlhweivNC_-82" value="" style="endArrow=none;startArrow=none;endFill=0;startFill=0;endSize=8;html=1;verticalAlign=bottom;dashed=1;labelBackgroundColor=none;dashPattern=10 10;rounded=0;entryX=0.883;entryY=1.009;entryDx=0;entryDy=0;entryPerimeter=0;" parent="pbYkRBpgoTOlhweivNC_-64" target="pbYkRBpgoTOlhweivNC_-64" edge="1">
          <mxGeometry width="160" relative="1" as="geometry">
            <mxPoint x="318" y="90" as="sourcePoint" />
            <mxPoint x="440" y="170" as="targetPoint" />
          </mxGeometry>
        </mxCell>
        <mxCell id="pbYkRBpgoTOlhweivNC_-83" value="Appstore öffnen" style="html=1;verticalAlign=bottom;labelBackgroundColor=none;endArrow=open;endFill=0;rounded=0;" parent="pbYkRBpgoTOlhweivNC_-64" edge="1">
          <mxGeometry width="160" relative="1" as="geometry">
            <mxPoint x="47.5" y="150" as="sourcePoint" />
            <mxPoint x="177.5" y="150" as="targetPoint" />
          </mxGeometry>
        </mxCell>
        <mxCell id="pbYkRBpgoTOlhweivNC_-86" value="Bestell-App suchen" style="html=1;verticalAlign=bottom;labelBackgroundColor=none;endArrow=open;endFill=0;rounded=0;entryX=0.057;entryY=0.242;entryDx=0;entryDy=0;entryPerimeter=0;" parent="pbYkRBpgoTOlhweivNC_-64" edge="1">
          <mxGeometry width="160" relative="1" as="geometry">
            <mxPoint x="182.5" y="170.16" as="sourcePoint" />
            <mxPoint x="315.2850000000001" y="169.83999999999995" as="targetPoint" />
            <Array as="points">
              <mxPoint x="230" y="170.16" />
            </Array>
          </mxGeometry>
        </mxCell>
        <mxCell id="pbYkRBpgoTOlhweivNC_-87" value="Appliste zurückgeben" style="html=1;verticalAlign=bottom;labelBackgroundColor=none;endArrow=open;endFill=0;rounded=0;exitX=0.057;exitY=0.748;exitDx=0;exitDy=0;exitPerimeter=0;" parent="pbYkRBpgoTOlhweivNC_-64" edge="1">
          <mxGeometry width="160" relative="1" as="geometry">
            <mxPoint x="315.2850000000001" y="190.00000000000003" as="sourcePoint" />
            <mxPoint x="182.5" y="190.20000000000002" as="targetPoint" />
            <Array as="points">
              <mxPoint x="260" y="190.08" />
            </Array>
          </mxGeometry>
        </mxCell>
        <mxCell id="pbYkRBpgoTOlhweivNC_-88" value="" style="html=1;points=[];perimeter=orthogonalPerimeter;fillColor=strokeColor;align=left;verticalAlign=top;spacingLeft=10;" parent="pbYkRBpgoTOlhweivNC_-64" vertex="1">
          <mxGeometry x="45" y="200" width="5" height="70" as="geometry" />
        </mxCell>
        <mxCell id="pbYkRBpgoTOlhweivNC_-89" value="" style="endArrow=none;startArrow=none;endFill=0;startFill=0;endSize=8;html=1;verticalAlign=bottom;dashed=1;labelBackgroundColor=none;dashPattern=10 10;rounded=0;entryX=0.133;entryY=0.998;entryDx=0;entryDy=0;entryPerimeter=0;" parent="pbYkRBpgoTOlhweivNC_-64" target="pbYkRBpgoTOlhweivNC_-64" edge="1">
          <mxGeometry width="160" relative="1" as="geometry">
            <mxPoint x="48" y="170" as="sourcePoint" />
            <mxPoint x="170" y="250" as="targetPoint" />
          </mxGeometry>
        </mxCell>
        <mxCell id="pbYkRBpgoTOlhweivNC_-91" value="App-Liste anzeigen" style="html=1;verticalAlign=bottom;labelBackgroundColor=none;endArrow=open;endFill=0;rounded=0;exitX=0.057;exitY=0.748;exitDx=0;exitDy=0;exitPerimeter=0;" parent="pbYkRBpgoTOlhweivNC_-64" edge="1">
          <mxGeometry width="160" relative="1" as="geometry">
            <mxPoint x="182.5" y="209.91000000000003" as="sourcePoint" />
            <mxPoint x="50" y="210.03000000000003" as="targetPoint" />
          </mxGeometry>
        </mxCell>
        <mxCell id="pbYkRBpgoTOlhweivNC_-92" value="App-Liste anschauen" style="html=1;verticalAlign=bottom;labelBackgroundColor=none;endArrow=open;endFill=0;rounded=0;exitX=1;exitY=0.429;exitDx=0;exitDy=0;exitPerimeter=0;" parent="pbYkRBpgoTOlhweivNC_-64" edge="1">
          <mxGeometry width="160" relative="1" as="geometry">
            <mxPoint x="50" y="240.0300000000001" as="sourcePoint" />
            <mxPoint x="177.5" y="240" as="targetPoint" />
            <Array as="points">
              <mxPoint x="90" y="240" />
            </Array>
          </mxGeometry>
        </mxCell>
        <mxCell id="pbYkRBpgoTOlhweivNC_-93" value="App auswählen" style="html=1;verticalAlign=bottom;labelBackgroundColor=none;endArrow=open;endFill=0;rounded=0;exitX=1;exitY=0.429;exitDx=0;exitDy=0;exitPerimeter=0;" parent="pbYkRBpgoTOlhweivNC_-64" edge="1">
          <mxGeometry width="160" relative="1" as="geometry">
            <mxPoint x="50" y="260" as="sourcePoint" />
            <mxPoint x="177.5" y="260" as="targetPoint" />
          </mxGeometry>
        </mxCell>
        <mxCell id="pbYkRBpgoTOlhweivNC_-94" value="" style="html=1;points=[];perimeter=orthogonalPerimeter;fillColor=strokeColor;align=left;verticalAlign=top;spacingLeft=10;" parent="pbYkRBpgoTOlhweivNC_-64" vertex="1">
          <mxGeometry x="177.5" y="280" width="5" height="60" as="geometry" />
        </mxCell>
        <mxCell id="pbYkRBpgoTOlhweivNC_-95" value="" style="endArrow=none;startArrow=none;endFill=0;startFill=0;endSize=8;html=1;verticalAlign=bottom;dashed=1;labelBackgroundColor=none;dashPattern=10 10;rounded=0;entryX=0.499;entryY=1.001;entryDx=0;entryDy=0;entryPerimeter=0;exitX=0.321;exitY=0.433;exitDx=0;exitDy=0;exitPerimeter=0;" parent="pbYkRBpgoTOlhweivNC_-64" source="pbYkRBpgoTOlhweivNC_-79" target="pbYkRBpgoTOlhweivNC_-64" edge="1">
          <mxGeometry width="160" relative="1" as="geometry">
            <mxPoint x="180.5" y="200" as="sourcePoint" />
            <mxPoint x="302.5" y="280" as="targetPoint" />
            <Array as="points">
              <mxPoint x="180" y="250" />
            </Array>
          </mxGeometry>
        </mxCell>
        <mxCell id="pbYkRBpgoTOlhweivNC_-96" value="" style="html=1;points=[];perimeter=orthogonalPerimeter;fillColor=strokeColor;align=left;verticalAlign=top;spacingLeft=10;" parent="pbYkRBpgoTOlhweivNC_-64" vertex="1">
          <mxGeometry x="315" y="280" width="5" height="40" as="geometry" />
        </mxCell>
        <mxCell id="pbYkRBpgoTOlhweivNC_-98" value="Download anfragen" style="html=1;verticalAlign=bottom;labelBackgroundColor=none;endArrow=open;endFill=0;rounded=0;" parent="pbYkRBpgoTOlhweivNC_-64" edge="1">
          <mxGeometry width="160" relative="1" as="geometry">
            <mxPoint x="180" y="290" as="sourcePoint" />
            <mxPoint x="315" y="290" as="targetPoint" />
          </mxGeometry>
        </mxCell>
        <mxCell id="pbYkRBpgoTOlhweivNC_-99" value="Status zurückgeben" style="html=1;verticalAlign=bottom;labelBackgroundColor=none;endArrow=open;endFill=0;rounded=0;exitX=0.057;exitY=0.748;exitDx=0;exitDy=0;exitPerimeter=0;" parent="pbYkRBpgoTOlhweivNC_-64" edge="1">
          <mxGeometry width="160" relative="1" as="geometry">
            <mxPoint x="315.28500000000014" y="310" as="sourcePoint" />
            <mxPoint x="182.50000000000003" y="310.20000000000005" as="targetPoint" />
            <Array as="points">
              <mxPoint x="260.00000000000006" y="310.08000000000004" />
            </Array>
          </mxGeometry>
        </mxCell>
        <mxCell id="pbYkRBpgoTOlhweivNC_-101" value="" style="html=1;points=[];perimeter=orthogonalPerimeter;fillColor=strokeColor;align=left;verticalAlign=top;spacingLeft=10;" parent="pbYkRBpgoTOlhweivNC_-64" vertex="1">
          <mxGeometry x="177.5" y="230" width="5" height="40" as="geometry" />
        </mxCell>
        <mxCell id="pbYkRBpgoTOlhweivNC_-103" value="Status anzeigen" style="html=1;verticalAlign=bottom;labelBackgroundColor=none;endArrow=open;endFill=0;rounded=0;exitX=0.057;exitY=0.748;exitDx=0;exitDy=0;exitPerimeter=0;" parent="pbYkRBpgoTOlhweivNC_-64" edge="1">
          <mxGeometry width="160" relative="1" as="geometry">
            <mxPoint x="182.5" y="330" as="sourcePoint" />
            <mxPoint x="50" y="330.12" as="targetPoint" />
          </mxGeometry>
        </mxCell>
        <mxCell id="pbYkRBpgoTOlhweivNC_-104" value="" style="html=1;points=[];perimeter=orthogonalPerimeter;fillColor=strokeColor;align=left;verticalAlign=top;spacingLeft=10;" parent="pbYkRBpgoTOlhweivNC_-64" vertex="1">
          <mxGeometry x="45" y="320" width="5" height="20" as="geometry" />
        </mxCell>
        <mxCell id="pbYkRBpgoTOlhweivNC_-106" value="sd Bestellung bestätigen" style="shape=umlFrame;whiteSpace=wrap;html=1;pointerEvents=0;recursiveResize=0;container=1;collapsible=0;width=150;height=30;" parent="pbYkRBpgoTOlhweivNC_-1" vertex="1">
          <mxGeometry x="359" y="1050" width="450" height="220" as="geometry" />
        </mxCell>
        <mxCell id="pbYkRBpgoTOlhweivNC_-109" value="Nutzer" style="shape=umlActor;verticalLabelPosition=bottom;verticalAlign=top;html=1;" parent="pbYkRBpgoTOlhweivNC_-106" vertex="1">
          <mxGeometry x="50" y="44.5" width="15" height="30" as="geometry" />
        </mxCell>
        <mxCell id="pbYkRBpgoTOlhweivNC_-110" value="App Interface" style="shape=umlActor;verticalLabelPosition=bottom;verticalAlign=top;html=1;" parent="pbYkRBpgoTOlhweivNC_-106" vertex="1">
          <mxGeometry x="257.5" y="159" width="15" height="30" as="geometry" />
        </mxCell>
        <mxCell id="pbYkRBpgoTOlhweivNC_-111" value="Bestellsystem" style="shape=umlActor;verticalLabelPosition=bottom;verticalAlign=top;html=1;" parent="pbYkRBpgoTOlhweivNC_-106" vertex="1">
          <mxGeometry x="399.5" y="159" width="15" height="30" as="geometry" />
        </mxCell>
        <mxCell id="pbYkRBpgoTOlhweivNC_-113" value="" style="line;strokeWidth=1;fillColor=none;align=left;verticalAlign=middle;spacingTop=-1;spacingLeft=3;spacingRight=3;rotatable=0;labelPosition=right;points=[];portConstraint=eastwest;strokeColor=inherit;" parent="pbYkRBpgoTOlhweivNC_-106" vertex="1">
          <mxGeometry x="70" y="55.5" width="310" height="8" as="geometry" />
        </mxCell>
        <mxCell id="pbYkRBpgoTOlhweivNC_-114" value="&lt;font style=&quot;font-size: 8px;&quot;&gt;1: bestätigt&lt;br&gt;&lt;/font&gt;" style="text;html=1;align=center;verticalAlign=middle;resizable=0;points=[];autosize=1;strokeColor=none;fillColor=none;" parent="pbYkRBpgoTOlhweivNC_-106" vertex="1">
          <mxGeometry x="185" y="33.5" width="60" height="30" as="geometry" />
        </mxCell>
        <mxCell id="pbYkRBpgoTOlhweivNC_-115" value="" style="endArrow=open;endFill=1;endSize=6;html=1;rounded=0;strokeWidth=1;jumpSize=5;startSize=6;" parent="pbYkRBpgoTOlhweivNC_-106" edge="1">
          <mxGeometry width="160" relative="1" as="geometry">
            <mxPoint x="242.5" y="51.5" as="sourcePoint" />
            <mxPoint x="252.5" y="51.5" as="targetPoint" />
          </mxGeometry>
        </mxCell>
        <mxCell id="pbYkRBpgoTOlhweivNC_-116" value="" style="line;strokeWidth=1;fillColor=none;align=left;verticalAlign=middle;spacingTop=-1;spacingLeft=3;spacingRight=3;rotatable=0;labelPosition=right;points=[];portConstraint=eastwest;strokeColor=inherit;flipV=1;flipH=1;direction=south;" parent="pbYkRBpgoTOlhweivNC_-106" vertex="1">
          <mxGeometry x="402.5" y="80" width="9" height="30" as="geometry" />
        </mxCell>
        <mxCell id="pbYkRBpgoTOlhweivNC_-118" value="&lt;font style=&quot;font-size: 11px;&quot;&gt;: Bestätigungsnachricht&lt;/font&gt;" style="fontStyle=0;html=1;whiteSpace=wrap;" parent="pbYkRBpgoTOlhweivNC_-106" vertex="1">
          <mxGeometry x="10" y="151.5" width="120" height="45" as="geometry" />
        </mxCell>
        <mxCell id="pbYkRBpgoTOlhweivNC_-119" value="&lt;font style=&quot;font-size: 8px;&quot;&gt;2: überprüft&lt;br&gt;&lt;/font&gt;" style="text;html=1;align=center;verticalAlign=middle;resizable=0;points=[];autosize=1;strokeColor=none;fillColor=none;" parent="pbYkRBpgoTOlhweivNC_-106" vertex="1">
          <mxGeometry x="377" y="100" width="60" height="30" as="geometry" />
        </mxCell>
        <mxCell id="pbYkRBpgoTOlhweivNC_-120" value="" style="line;strokeWidth=1;fillColor=none;align=left;verticalAlign=middle;spacingTop=-1;spacingLeft=3;spacingRight=3;rotatable=0;labelPosition=right;points=[];portConstraint=eastwest;strokeColor=inherit;flipV=1;flipH=1;direction=south;" parent="pbYkRBpgoTOlhweivNC_-106" vertex="1">
          <mxGeometry x="402.5" y="124" width="9" height="30" as="geometry" />
        </mxCell>
        <mxCell id="pbYkRBpgoTOlhweivNC_-121" value="" style="endArrow=open;endFill=1;endSize=6;html=1;rounded=0;strokeWidth=1;jumpSize=5;startSize=6;" parent="pbYkRBpgoTOlhweivNC_-106" edge="1">
          <mxGeometry width="160" relative="1" as="geometry">
            <mxPoint x="414" y="109.38" as="sourcePoint" />
            <mxPoint x="414" y="99.99855670103068" as="targetPoint" />
            <Array as="points">
              <mxPoint x="414" y="109.38" />
            </Array>
          </mxGeometry>
        </mxCell>
        <mxCell id="pbYkRBpgoTOlhweivNC_-122" value="&lt;font style=&quot;font-size: 11px;&quot;&gt;: Bestellung&lt;/font&gt;" style="fontStyle=0;html=1;whiteSpace=wrap;" parent="pbYkRBpgoTOlhweivNC_-106" vertex="1">
          <mxGeometry x="372" y="39" width="70" height="41" as="geometry" />
        </mxCell>
        <mxCell id="pbYkRBpgoTOlhweivNC_-124" value="" style="line;strokeWidth=1;fillColor=none;align=left;verticalAlign=middle;spacingTop=-1;spacingLeft=3;spacingRight=3;rotatable=0;labelPosition=right;points=[];portConstraint=eastwest;strokeColor=inherit;" parent="pbYkRBpgoTOlhweivNC_-106" vertex="1">
          <mxGeometry x="279" y="170" width="117.5" height="8" as="geometry" />
        </mxCell>
        <mxCell id="pbYkRBpgoTOlhweivNC_-125" value="&lt;font style=&quot;font-size: 8px;&quot;&gt;3: gibt Bestellung frei&lt;br&gt;&lt;/font&gt;" style="text;html=1;align=center;verticalAlign=middle;resizable=0;points=[];autosize=1;strokeColor=none;fillColor=none;" parent="pbYkRBpgoTOlhweivNC_-106" vertex="1">
          <mxGeometry x="296.5" y="148" width="100" height="30" as="geometry" />
        </mxCell>
        <mxCell id="pbYkRBpgoTOlhweivNC_-126" value="" style="endArrow=open;endFill=1;endSize=6;html=1;rounded=0;strokeWidth=1;jumpSize=5;startSize=6;" parent="pbYkRBpgoTOlhweivNC_-106" edge="1">
          <mxGeometry width="160" relative="1" as="geometry">
            <mxPoint x="309.5" y="164.9000000000001" as="sourcePoint" />
            <mxPoint x="299.5" y="164.9000000000001" as="targetPoint" />
          </mxGeometry>
        </mxCell>
        <mxCell id="pbYkRBpgoTOlhweivNC_-127" value="" style="line;strokeWidth=1;fillColor=none;align=left;verticalAlign=middle;spacingTop=-1;spacingLeft=3;spacingRight=3;rotatable=0;labelPosition=right;points=[];portConstraint=eastwest;strokeColor=inherit;" parent="pbYkRBpgoTOlhweivNC_-106" vertex="1">
          <mxGeometry x="130" y="170" width="117.5" height="8" as="geometry" />
        </mxCell>
        <mxCell id="pbYkRBpgoTOlhweivNC_-128" value="&lt;font style=&quot;font-size: 8px;&quot;&gt;4: zeigt an&lt;br&gt;&lt;/font&gt;" style="text;html=1;align=center;verticalAlign=middle;resizable=0;points=[];autosize=1;strokeColor=none;fillColor=none;" parent="pbYkRBpgoTOlhweivNC_-106" vertex="1">
          <mxGeometry x="167.5" y="148" width="60" height="30" as="geometry" />
        </mxCell>
        <mxCell id="pbYkRBpgoTOlhweivNC_-129" value="" style="endArrow=open;endFill=1;endSize=6;html=1;rounded=0;strokeWidth=1;jumpSize=5;startSize=6;" parent="pbYkRBpgoTOlhweivNC_-106" edge="1">
          <mxGeometry width="160" relative="1" as="geometry">
            <mxPoint x="160.5" y="164.9000000000001" as="sourcePoint" />
            <mxPoint x="150.5" y="164.9000000000001" as="targetPoint" />
          </mxGeometry>
        </mxCell>
        <mxCell id="pbYkRBpgoTOlhweivNC_-130" value="" style="line;strokeWidth=1;fillColor=none;align=left;verticalAlign=middle;spacingTop=-1;spacingLeft=3;spacingRight=3;rotatable=0;labelPosition=right;points=[];portConstraint=eastwest;strokeColor=inherit;flipV=1;flipH=1;direction=south;" parent="pbYkRBpgoTOlhweivNC_-106" vertex="1">
          <mxGeometry x="53" y="97" width="9" height="20" as="geometry" />
        </mxCell>
        <mxCell id="pbYkRBpgoTOlhweivNC_-131" value="&lt;font style=&quot;font-size: 8px;&quot;&gt;5: liest&lt;br&gt;&lt;/font&gt;" style="text;html=1;align=center;verticalAlign=middle;resizable=0;points=[];autosize=1;strokeColor=none;fillColor=none;" parent="pbYkRBpgoTOlhweivNC_-106" vertex="1">
          <mxGeometry x="32.5" y="107" width="50" height="30" as="geometry" />
        </mxCell>
        <mxCell id="pbYkRBpgoTOlhweivNC_-132" value="" style="line;strokeWidth=1;fillColor=none;align=left;verticalAlign=middle;spacingTop=-1;spacingLeft=3;spacingRight=3;rotatable=0;labelPosition=right;points=[];portConstraint=eastwest;strokeColor=inherit;flipV=1;flipH=1;direction=south;" parent="pbYkRBpgoTOlhweivNC_-106" vertex="1">
          <mxGeometry x="53" y="130" width="9" height="21.5" as="geometry" />
        </mxCell>
        <mxCell id="pbYkRBpgoTOlhweivNC_-133" value="" style="endArrow=open;endFill=1;endSize=6;html=1;rounded=0;strokeWidth=1;jumpSize=5;startSize=6;" parent="pbYkRBpgoTOlhweivNC_-106" edge="1">
          <mxGeometry width="160" relative="1" as="geometry">
            <mxPoint x="65" y="129.9985567010308" as="sourcePoint" />
            <mxPoint x="65" y="139.3800000000001" as="targetPoint" />
            <Array as="points">
              <mxPoint x="65" y="139.3800000000001" />
            </Array>
          </mxGeometry>
        </mxCell>
        <mxCell id="_f48HNEQYsV6DUKk7ocw-4" value="sd Lieferadresse eingeben" style="shape=umlFrame;whiteSpace=wrap;html=1;pointerEvents=0;recursiveResize=0;container=1;collapsible=0;width=180;height=30;" vertex="1" parent="pbYkRBpgoTOlhweivNC_-1">
          <mxGeometry x="359" y="1320" width="450" height="250" as="geometry" />
        </mxCell>
      </root>
    </mxGraphModel>
  </diagram>
</mxfile>
